<?xml version="1.0" encoding="UTF-8"?>
<svg id="Layer_1" data-name="Layer 1" xmlns="http://www.w3.org/2000/svg" viewBox="0 0 887.25 193.87">
  <g>
    <path d="M37.01,147.79c-6.26-2.05-11.85-4.94-16.76-8.69v-20.89h.88c4.68,6.67,10,11.7,15.97,15.09,5.97,3.4,12.29,5.09,18.96,5.09,4.45,0,8.57-.79,12.37-2.37,3.8-1.58,6.82-3.86,9.04-6.85,2.22-2.98,3.33-6.58,3.33-10.79s-1.29-7.75-3.86-10.62c-2.58-2.87-6.73-5.59-12.46-8.16l-17.03-7.55c-8.19-3.74-14.28-8.34-18.25-13.78-3.98-5.44-5.97-11.61-5.97-18.52,0-6.43,1.76-12.34,5.27-17.73,3.51-5.38,8.4-9.62,14.66-12.73,6.26-3.1,13.31-4.65,21.15-4.65,5.85,0,11.44.76,16.76,2.28,5.32,1.52,9.86,3.51,13.6,5.97v20.19h-.88c-3.4-5.38-7.64-9.42-12.73-12.11-5.09-2.69-10.62-4.04-16.59-4.04-7.14,0-12.99,1.73-17.55,5.18-4.56,3.45-6.85,8.28-6.85,14.48,0,3.98,1.2,7.52,3.6,10.62,2.4,3.1,6.35,5.88,11.85,8.34l17.38,7.9c8.42,3.86,14.71,8.31,18.87,13.34,4.15,5.03,6.23,11.18,6.23,18.43s-1.84,13.05-5.53,18.43c-3.69,5.38-8.72,9.6-15.1,12.64-6.38,3.04-13.43,4.56-21.15,4.56-6.55,0-12.96-1.03-19.22-3.07Z" fill="#231f20"/>
    <path d="M239.93,137.52c.82-3.98,1.23-9.3,1.23-15.97V53.97c0-6.67-.41-11.99-1.23-15.97-.82-3.98-2.28-7.49-4.39-10.53v-.7h45.11c9.13,0,16.85,1.23,23.17,3.69s11.09,5.91,14.31,10.36c3.22,4.45,4.83,9.6,4.83,15.45,0,7.02-2.46,13.05-7.37,18.08-4.91,5.03-11.53,8.42-19.83,10.18v.7c10.53,1.4,18.75,4.83,24.66,10.27,5.91,5.44,8.86,11.97,8.86,19.57,0,6.2-1.73,11.85-5.18,16.94-3.45,5.09-8.54,9.16-15.27,12.2-6.73,3.04-14.72,4.56-23.96,4.56h-49.32v-.7c2.11-3.04,3.57-6.55,4.39-10.53ZM292.41,77.06c3.98-1.58,7.02-3.95,9.13-7.11,2.11-3.16,3.16-7.08,3.16-11.76,0-6.32-2.34-11.17-7.02-14.57-4.68-3.39-11.29-5.09-19.83-5.09h-19.48v40.9h19.31c5.85,0,10.76-.79,14.74-2.37ZM258.36,137h20.89c6.43,0,12.02-.85,16.76-2.54,4.74-1.7,8.4-4.3,10.97-7.81,2.57-3.51,3.86-7.84,3.86-12.99,0-7.49-2.81-13.1-8.42-16.85-5.62-3.74-13.69-5.62-24.22-5.62h-19.83v45.81Z" fill="#231f20"/>
    <path d="M426.56,148.76h-87.59v-.7c2.11-3.04,3.57-6.52,4.39-10.44.82-3.92,1.23-9.27,1.23-16.06V53.8c0-6.79-.38-12.17-1.14-16.15-.76-3.98-2.25-7.37-4.48-10.18v-.7h85.3v20.54h-.88c-2.22-3.16-5.33-5.35-9.3-6.58-3.98-1.23-9.83-1.84-17.55-1.84h-34.75v42.13h26.68c6.79,0,11.99-.53,15.62-1.58,3.63-1.05,6.55-2.69,8.78-4.91h.88v24.92h-.88c-2.11-2.34-5-4.01-8.69-5-3.69-.99-8.92-1.49-15.71-1.49h-26.68v43.71h37.21c7.25,0,12.96-.76,17.11-2.28,4.15-1.52,7.34-4.33,9.57-8.43h.88v22.82Z" fill="#231f20"/>
    <path d="M442.36,137.61c.82-3.92,1.23-9.33,1.23-16.24V53.62c0-6.67-.38-11.99-1.14-15.97-.76-3.98-2.25-7.37-4.48-10.18v-.7h42.65c8.78,0,16.38,1.32,22.82,3.95,6.43,2.63,11.35,6.35,14.74,11.15,3.39,4.8,5.09,10.36,5.09,16.67s-1.73,11.7-5.18,16.5c-3.45,4.8-8.42,8.57-14.92,11.32-6.49,2.75-14.13,4.12-22.91,4.12l-2.11-.35,13.52-1.93,50.02,60.21v.35h-22.29l-46.16-57.57h-12.64v30.19c0,6.91.41,12.32,1.23,16.24.82,3.92,2.28,7.4,4.39,10.44v.7h-28.26v-.7c2.11-3.04,3.57-6.52,4.39-10.44ZM498,73.81c4.68-3.63,7.02-8.66,7.02-15.09s-2.31-11.7-6.93-15.1c-4.62-3.39-11.44-5.09-20.45-5.09h-17.03v40.72h16.85c9.01,0,15.85-1.81,20.54-5.44Z" fill="#231f20"/>
    <path d="M539.91,139.28c1.69-3.39,3.83-8.42,6.41-15.09.23-.58.38-.99.44-1.23.06-.23.2-.64.44-1.23l37.21-94.96h15.1l37.91,94.08c.7,1.52,1.34,3.1,1.93,4.74,2.57,6.44,4.62,11.21,6.14,14.3,1.52,3.1,3.39,5.82,5.62,8.16v.7h-29.14v-.7c1.64-2.81,2.16-6.43,1.58-10.88-.59-4.45-2.05-9.65-4.39-15.62l-29.14-73.37h-.7l-28.43,73.72c-2.34,6.09-3.75,11.26-4.21,15.53-.47,4.27.18,7.81,1.93,10.62v.7h-25.1v-.7c2.57-2.46,4.71-5.38,6.41-8.78ZM560.01,100.14h58.62v12.11h-58.62v-12.11Z" fill="#231f20"/>
    <path d="M662.32,137.7c.76-3.98,1.14-9.36,1.14-16.15V33.61l-4.04-6.49v-.35h24.45l61.61,97.42h1.88V53.8c0-6.79-.38-12.17-1.14-16.15-.76-3.98-2.25-7.37-4.48-10.18v-.7h24.57v.7c-2.11,2.93-3.57,6.38-4.39,10.36-.82,3.98-1.23,9.3-1.23,15.97v94.96h-18.25l-64.59-101.63h-.88v74.42c0,6.67.41,12.02,1.23,16.06.82,4.04,2.28,7.52,4.39,10.44v.7h-24.57v-.7c2.11-2.92,3.54-6.38,4.3-10.36Z" fill="#231f20"/>
    <path d="M775.06,139.28c1.69-3.39,3.83-8.42,6.41-15.09.23-.58.38-.99.44-1.23.06-.23.2-.64.44-1.23l37.21-94.96h15.1l37.91,94.08c.7,1.52,1.34,3.1,1.93,4.74,2.57,6.44,4.62,11.21,6.14,14.3,1.52,3.1,3.39,5.82,5.62,8.16v.7h-29.14v-.7c1.64-2.81,2.16-6.43,1.58-10.88-.59-4.45-2.05-9.65-4.39-15.62l-29.14-73.37h-.7l-28.43,73.72c-2.34,6.09-3.75,11.26-4.21,15.53-.47,4.27.18,7.81,1.93,10.62v.7h-25.1v-.7c2.57-2.46,4.71-5.38,6.41-8.78ZM795.16,100.14h58.62v12.11h-58.62v-12.11Z" fill="#231f20"/>
  </g>
  <g>
    <path d="M121.25,69.41v36.7h-2.03c-9.15,0-14.23-6.46-14.23-18.09v-.52c0-11.63,5.08-18.09,14.23-18.09h2.03ZM137.52,48.74v2.58c0,11.63-5.09,18.09-14.23,18.09h-2.03v-2.58c0-11.63,5.08-18.09,14.23-18.09h2.04ZM135.49,126.79c-9.15,0-14.23-6.46-14.23-18.09v-2.58h2.03c9.15,0,14.23,6.46,14.23,18.09v2.58h-2.04ZM180.21,26.77c9.15,0,14.23,6.46,14.23,18.09v3.88h-56.93v-3.88c0-11.63,5.08-18.09,14.23-18.09h28.46ZM194.45,126.79v3.88c0,11.63-5.08,18.09-14.23,18.09h-28.46c-9.15,0-14.23-6.46-14.23-18.09v-3.88h56.93ZM196.48,48.74c9.15,0,14.23,6.46,14.23,18.09v2.58h-2.03c-9.15,0-14.23-6.46-14.23-18.09v-2.58h2.03ZM210.71,106.11v2.58c0,11.63-5.08,18.09-14.23,18.09h-2.03v-2.58c0-11.63,5.08-18.09,14.23-18.09h2.03ZM212.75,69.41c9.15,0,14.23,6.46,14.23,18.09v.52c0,11.63-5.08,18.09-14.23,18.09h-2.03v-36.7h2.03Z" fill="#231f20"/>
    <g>
      <line x1="149.35" y1="105.4" x2="182.62" y2="70.12" fill="#231f20"/>
      <path d="M149.35,105.4c.64-13.22,8.9-24.6,20.08-31.06,3.99-2.21,8.5-3.85,13.19-4.22-.09,4.71-1.47,9.31-3.44,13.42-5.8,11.54-16.67,20.45-29.83,21.86h0Z" fill="#231f20"/>
    </g>
  </g>
</svg>