<?xml version="1.0" encoding="UTF-8"?>
<svg id="Layer_1" data-name="Layer 1" xmlns="http://www.w3.org/2000/svg" viewBox="0 0 121.99 121.99">
  <path d="M16.26,42.64v36.7h-2.03c-9.15,0-14.23-6.46-14.23-18.09v-.52c0-11.63,5.08-18.09,14.23-18.09h2.03ZM32.53,21.97v2.58c0,11.63-5.09,18.09-14.23,18.09h-2.03v-2.58c0-11.63,5.08-18.09,14.23-18.09h2.04ZM30.5,100.02c-9.15,0-14.23-6.46-14.23-18.09v-2.58h2.03c9.15,0,14.23,6.46,14.23,18.09v2.58h-2.04ZM75.23,0C84.37,0,89.46,6.46,89.46,18.09v3.88h-56.93v-3.88C32.53,6.46,37.61,0,46.76,0h28.46ZM89.46,100.02v3.88c0,11.63-5.08,18.09-14.23,18.09h-28.46c-9.15,0-14.23-6.46-14.23-18.09v-3.88h56.93ZM91.49,21.97c9.15,0,14.23,6.46,14.23,18.09v2.58h-2.03c-9.15,0-14.23-6.46-14.23-18.09v-2.58h2.03ZM105.72,79.34v2.58c0,11.63-5.08,18.09-14.23,18.09h-2.03v-2.58c0-11.63,5.08-18.09,14.23-18.09h2.03ZM107.76,42.64c9.15,0,14.23,6.46,14.23,18.09v.52c0,11.63-5.08,18.09-14.23,18.09h-2.03v-36.7h2.03Z" fill="#231f20"/>
  <g>
    <line x1="44.36" y1="78.64" x2="77.63" y2="43.35" fill="#231f20"/>
    <path d="M44.36,78.64c.64-13.22,8.9-24.6,20.08-31.06,3.99-2.21,8.5-3.85,13.19-4.22-.09,4.71-1.47,9.31-3.44,13.42-5.8,11.54-16.67,20.45-29.83,21.86h0Z" fill="#231f20"/>
  </g>
</svg>